<?xml version="1.0" encoding="UTF-8" standalone="no"?>
<!DOCTYPE svg PUBLIC "-//W3C//DTD SVG 1.1//EN"
 "http://www.w3.org/Graphics/SVG/1.1/DTD/svg11.dtd">
<!-- Generated by graphviz version 2.47.0 (20210316.0004)
 -->
<!-- Title: dependencies Pages: 1 -->
<svg width="903pt" height="284pt"
 viewBox="0.00 0.00 903.00 284.00" xmlns="http://www.w3.org/2000/svg" xmlns:xlink="http://www.w3.org/1999/xlink">
<g id="graph0" class="graph" transform="scale(1 1) rotate(0) translate(4 280)">
<title>dependencies</title>
<polygon fill="white" stroke="transparent" points="-4,4 -4,-280 899,-280 899,4 -4,4"/>
<text text-anchor="start" x="426.51" y="-42.4" font-family="sans-serif" font-weight="bold" font-size="14.00">Legend</text>
<polygon fill="#ffffb3" stroke="transparent" points="213.5,-10 213.5,-30 233.5,-30 233.5,-10 213.5,-10"/>
<text text-anchor="start" x="237.13" y="-15.4" font-family="sans-serif" font-size="14.00"> &#160;Declarations</text>
<polygon fill="#8dd3c7" stroke="transparent" points="326.5,-10 326.5,-30 346.5,-30 346.5,-10 326.5,-10"/>
<text text-anchor="start" x="350.23" y="-15.4" font-family="sans-serif" font-size="14.00"> &#160;Module</text>
<polygon fill="#80b1d3" stroke="transparent" points="412.5,-10 412.5,-30 432.5,-30 432.5,-10 412.5,-10"/>
<text text-anchor="start" x="436.28" y="-15.4" font-family="sans-serif" font-size="14.00"> &#160;Bootstrap</text>
<polygon fill="#fdb462" stroke="transparent" points="509.5,-10 509.5,-30 529.5,-30 529.5,-10 509.5,-10"/>
<text text-anchor="start" x="533.17" y="-15.4" font-family="sans-serif" font-size="14.00"> &#160;Providers</text>
<polygon fill="#fb8072" stroke="transparent" points="605.5,-10 605.5,-30 625.5,-30 625.5,-10 605.5,-10"/>
<text text-anchor="start" x="629.23" y="-15.4" font-family="sans-serif" font-size="14.00"> &#160;Exports</text>
<g id="clust1" class="cluster">
<title>cluster_AppModule</title>
<polygon fill="none" stroke="black" stroke-dasharray="1,5" points="8,-70 8,-268 887,-268 887,-70 8,-70"/>
</g>
<g id="clust7" class="cluster">
<title>cluster_AppModule_bootstrap</title>
<polygon fill="none" stroke="black" points="355,-208 355,-260 479,-260 479,-208 355,-208"/>
</g>
<g id="clust2" class="cluster">
<title>cluster_AppModule_declarations</title>
<polygon fill="none" stroke="black" points="620,-78 620,-130 879,-130 879,-78 620,-78"/>
</g>
<g id="clust5" class="cluster">
<title>cluster_AppModule_imports</title>
<polygon fill="none" stroke="black" points="16,-78 16,-130 612,-130 612,-78 16,-78"/>
</g>
<!-- AppComponent -->
<g id="node1" class="node">
<title>AppComponent</title>
<polygon fill="#ffffb3" stroke="black" points="870.94,-122 765.06,-122 765.06,-86 870.94,-86 870.94,-122"/>
<text text-anchor="middle" x="818" y="-99.8" font-family="Times,serif" font-size="14.00">AppComponent</text>
</g>
<!-- AppModule -->
<g id="node3" class="node">
<title>AppModule</title>
<polygon fill="#8dd3c7" stroke="black" points="458.66,-187 455.66,-191 434.66,-191 431.66,-187 375.34,-187 375.34,-151 458.66,-151 458.66,-187"/>
<text text-anchor="middle" x="417" y="-164.8" font-family="Times,serif" font-size="14.00">AppModule</text>
</g>
<!-- AppComponent&#45;&gt;AppModule -->
<g id="edge1" class="edge">
<title>AppComponent&#45;&gt;AppModule</title>
<path fill="none" stroke="black" d="M818,-122.29C818,-144.21 818,-178 818,-178 818,-178 468.78,-178 468.78,-178"/>
<polygon fill="black" stroke="black" points="468.78,-174.5 458.78,-178 468.78,-181.5 468.78,-174.5"/>
</g>
<!-- DialogComponent -->
<g id="node2" class="node">
<title>DialogComponent</title>
<polygon fill="#ffffb3" stroke="black" points="747.94,-122 628.06,-122 628.06,-86 747.94,-86 747.94,-122"/>
<text text-anchor="middle" x="688" y="-99.8" font-family="Times,serif" font-size="14.00">DialogComponent</text>
</g>
<!-- DialogComponent&#45;&gt;AppModule -->
<g id="edge2" class="edge">
<title>DialogComponent&#45;&gt;AppModule</title>
<path fill="none" stroke="black" d="M688,-122.11C688,-141.34 688,-169 688,-169 688,-169 468.75,-169 468.75,-169"/>
<polygon fill="black" stroke="black" points="468.75,-165.5 458.75,-169 468.75,-172.5 468.75,-165.5"/>
</g>
<!-- AppComponent  -->
<g id="node9" class="node">
<title>AppComponent </title>
<polygon fill="#80b1d3" stroke="black" points="471.44,-252 362.56,-252 362.56,-216 471.44,-216 471.44,-252"/>
<text text-anchor="middle" x="417" y="-229.8" font-family="Times,serif" font-size="14.00">AppComponent </text>
</g>
<!-- AppModule&#45;&gt;AppComponent  -->
<g id="edge8" class="edge">
<title>AppModule&#45;&gt;AppComponent </title>
<path fill="none" stroke="black" stroke-dasharray="1,5" d="M417,-187.11C417,-187.11 417,-205.99 417,-205.99"/>
<polygon fill="black" stroke="black" points="413.5,-205.99 417,-215.99 420.5,-205.99 413.5,-205.99"/>
</g>
<!-- AppRoutingModule -->
<g id="node4" class="node">
<title>AppRoutingModule</title>
<polygon fill="#8dd3c7" stroke="black" points="604.27,-122 601.27,-126 580.27,-126 577.27,-122 475.73,-122 475.73,-86 604.27,-86 604.27,-122"/>
<text text-anchor="middle" x="540" y="-99.8" font-family="Times,serif" font-size="14.00">AppRoutingModule</text>
</g>
<!-- AppRoutingModule&#45;&gt;AppModule -->
<g id="edge3" class="edge">
<title>AppRoutingModule&#45;&gt;AppModule</title>
<path fill="none" stroke="black" d="M540,-122.03C540,-138.4 540,-160 540,-160 540,-160 468.99,-160 468.99,-160"/>
<polygon fill="black" stroke="black" points="468.99,-156.5 458.99,-160 468.99,-163.5 468.99,-156.5"/>
</g>
<!-- DeaModule -->
<g id="node5" class="node">
<title>DeaModule</title>
<polygon fill="#8dd3c7" stroke="black" points="458.09,-122 455.09,-126 434.09,-126 431.09,-122 375.91,-122 375.91,-86 458.09,-86 458.09,-122"/>
<text text-anchor="middle" x="417" y="-99.8" font-family="Times,serif" font-size="14.00">DeaModule</text>
</g>
<!-- DeaModule&#45;&gt;AppModule -->
<g id="edge4" class="edge">
<title>DeaModule&#45;&gt;AppModule</title>
<path fill="none" stroke="black" d="M417,-122.11C417,-122.11 417,-140.99 417,-140.99"/>
<polygon fill="black" stroke="black" points="413.5,-140.99 417,-150.99 420.5,-140.99 413.5,-140.99"/>
</g>
<!-- GrammarModule -->
<g id="node6" class="node">
<title>GrammarModule</title>
<polygon fill="#8dd3c7" stroke="black" points="357.69,-122 354.69,-126 333.69,-126 330.69,-122 244.31,-122 244.31,-86 357.69,-86 357.69,-122"/>
<text text-anchor="middle" x="301" y="-99.8" font-family="Times,serif" font-size="14.00">GrammarModule</text>
</g>
<!-- GrammarModule&#45;&gt;AppModule -->
<g id="edge5" class="edge">
<title>GrammarModule&#45;&gt;AppModule</title>
<path fill="none" stroke="black" d="M301,-122.03C301,-138.4 301,-160 301,-160 301,-160 365.12,-160 365.12,-160"/>
<polygon fill="black" stroke="black" points="365.12,-163.5 375.12,-160 365.12,-156.5 365.12,-163.5"/>
</g>
<!-- KellerModule -->
<g id="node7" class="node">
<title>KellerModule</title>
<polygon fill="#8dd3c7" stroke="black" points="226.03,-122 223.03,-126 202.03,-126 199.03,-122 131.97,-122 131.97,-86 226.03,-86 226.03,-122"/>
<text text-anchor="middle" x="179" y="-99.8" font-family="Times,serif" font-size="14.00">KellerModule</text>
</g>
<!-- KellerModule&#45;&gt;AppModule -->
<g id="edge6" class="edge">
<title>KellerModule&#45;&gt;AppModule</title>
<path fill="none" stroke="black" d="M179,-122.11C179,-141.34 179,-169 179,-169 179,-169 365.27,-169 365.27,-169"/>
<polygon fill="black" stroke="black" points="365.27,-172.5 375.27,-169 365.27,-165.5 365.27,-172.5"/>
</g>
<!-- MainModule -->
<g id="node8" class="node">
<title>MainModule</title>
<polygon fill="#8dd3c7" stroke="black" points="113.6,-122 110.6,-126 89.6,-126 86.6,-122 24.4,-122 24.4,-86 113.6,-86 113.6,-122"/>
<text text-anchor="middle" x="69" y="-99.8" font-family="Times,serif" font-size="14.00">MainModule</text>
</g>
<!-- MainModule&#45;&gt;AppModule -->
<g id="edge7" class="edge">
<title>MainModule&#45;&gt;AppModule</title>
<path fill="none" stroke="black" d="M69,-122.29C69,-144.21 69,-178 69,-178 69,-178 365.02,-178 365.02,-178"/>
<polygon fill="black" stroke="black" points="365.02,-181.5 375.02,-178 365.02,-174.5 365.02,-181.5"/>
</g>
</g>
</svg>
