<?xml version="1.0" encoding="UTF-8" standalone="no"?>
<!DOCTYPE svg PUBLIC "-//W3C//DTD SVG 1.1//EN"
 "http://www.w3.org/Graphics/SVG/1.1/DTD/svg11.dtd">
<!-- Generated by graphviz version 2.47.0 (20210316.0004)
 -->
<!-- Title: dependencies Pages: 1 -->
<svg width="504pt" height="211pt"
 viewBox="0.00 0.00 504.00 211.00" xmlns="http://www.w3.org/2000/svg" xmlns:xlink="http://www.w3.org/1999/xlink">
<g id="graph0" class="graph" transform="scale(1 1) rotate(0) translate(4 207)">
<title>dependencies</title>
<polygon fill="white" stroke="transparent" points="-4,4 -4,-207 500,-207 500,4 -4,4"/>
<text text-anchor="start" x="227.01" y="-42.4" font-family="sans-serif" font-weight="bold" font-size="14.00">Legend</text>
<polygon fill="#ffffb3" stroke="transparent" points="14,-10 14,-30 34,-30 34,-10 14,-10"/>
<text text-anchor="start" x="37.63" y="-15.4" font-family="sans-serif" font-size="14.00"> &#160;Declarations</text>
<polygon fill="#8dd3c7" stroke="transparent" points="127,-10 127,-30 147,-30 147,-10 127,-10"/>
<text text-anchor="start" x="150.73" y="-15.4" font-family="sans-serif" font-size="14.00"> &#160;Module</text>
<polygon fill="#80b1d3" stroke="transparent" points="213,-10 213,-30 233,-30 233,-10 213,-10"/>
<text text-anchor="start" x="236.78" y="-15.4" font-family="sans-serif" font-size="14.00"> &#160;Bootstrap</text>
<polygon fill="#fdb462" stroke="transparent" points="310,-10 310,-30 330,-30 330,-10 310,-10"/>
<text text-anchor="start" x="333.67" y="-15.4" font-family="sans-serif" font-size="14.00"> &#160;Providers</text>
<polygon fill="#fb8072" stroke="transparent" points="406,-10 406,-30 426,-30 426,-10 406,-10"/>
<text text-anchor="start" x="429.73" y="-15.4" font-family="sans-serif" font-size="14.00"> &#160;Exports</text>
<g id="clust1" class="cluster">
<title>cluster_DeaModule</title>
<polygon fill="none" stroke="black" stroke-dasharray="1,5" points="31,-70 31,-195 465,-195 465,-70 31,-70"/>
</g>
<g id="clust8" class="cluster">
<title>cluster_DeaModule_providers</title>
<polygon fill="none" stroke="black" points="329,-78 329,-130 457,-130 457,-78 329,-78"/>
</g>
<g id="clust2" class="cluster">
<title>cluster_DeaModule_declarations</title>
<polygon fill="none" stroke="black" points="39,-78 39,-130 321,-130 321,-78 39,-78"/>
</g>
<!-- CytoGraphComponent -->
<g id="node1" class="node">
<title>CytoGraphComponent</title>
<polygon fill="#ffffb3" stroke="black" points="312.54,-122 169.46,-122 169.46,-86 312.54,-86 312.54,-122"/>
<text text-anchor="middle" x="241" y="-99.8" font-family="Times,serif" font-size="14.00">CytoGraphComponent</text>
</g>
<!-- DeaModule -->
<g id="node3" class="node">
<title>DeaModule</title>
<polygon fill="#8dd3c7" stroke="black" points="282.09,-187 279.09,-191 258.09,-191 255.09,-187 199.91,-187 199.91,-151 282.09,-151 282.09,-187"/>
<text text-anchor="middle" x="241" y="-164.8" font-family="Times,serif" font-size="14.00">DeaModule</text>
</g>
<!-- CytoGraphComponent&#45;&gt;DeaModule -->
<g id="edge1" class="edge">
<title>CytoGraphComponent&#45;&gt;DeaModule</title>
<path fill="none" stroke="black" d="M241,-122.11C241,-122.11 241,-140.99 241,-140.99"/>
<polygon fill="black" stroke="black" points="237.5,-140.99 241,-150.99 244.5,-140.99 237.5,-140.99"/>
</g>
<!-- DeaComponent -->
<g id="node2" class="node">
<title>DeaComponent</title>
<polygon fill="#ffffb3" stroke="black" points="150.87,-122 47.13,-122 47.13,-86 150.87,-86 150.87,-122"/>
<text text-anchor="middle" x="99" y="-99.8" font-family="Times,serif" font-size="14.00">DeaComponent</text>
</g>
<!-- DeaComponent&#45;&gt;DeaModule -->
<g id="edge2" class="edge">
<title>DeaComponent&#45;&gt;DeaModule</title>
<path fill="none" stroke="black" d="M99,-122.11C99,-141.34 99,-169 99,-169 99,-169 189.93,-169 189.93,-169"/>
<polygon fill="black" stroke="black" points="189.93,-172.5 199.93,-169 189.93,-165.5 189.93,-172.5"/>
</g>
<!-- DeaService -->
<g id="node4" class="node">
<title>DeaService</title>
<ellipse fill="#fdb462" stroke="black" cx="393" cy="-104" rx="55.57" ry="18"/>
<text text-anchor="middle" x="393" y="-99.8" font-family="Times,serif" font-size="14.00">DeaService</text>
</g>
<!-- DeaService&#45;&gt;DeaModule -->
<g id="edge3" class="edge">
<title>DeaService&#45;&gt;DeaModule</title>
<path fill="none" stroke="black" d="M393,-122.11C393,-141.34 393,-169 393,-169 393,-169 292.13,-169 292.13,-169"/>
<polygon fill="black" stroke="black" points="292.13,-165.5 282.13,-169 292.13,-172.5 292.13,-165.5"/>
</g>
</g>
</svg>
