<?xml version="1.0" encoding="UTF-8" standalone="no"?>
<!DOCTYPE svg PUBLIC "-//W3C//DTD SVG 1.1//EN"
 "http://www.w3.org/Graphics/SVG/1.1/DTD/svg11.dtd">
<!-- Generated by graphviz version 2.47.0 (20210316.0004)
 -->
<!-- Title: dependencies Pages: 1 -->
<svg width="1514pt" height="428pt"
 viewBox="0.00 0.00 1514.00 428.00" xmlns="http://www.w3.org/2000/svg" xmlns:xlink="http://www.w3.org/1999/xlink">
<g id="graph0" class="graph" transform="scale(1 1) rotate(0) translate(4 424)">
<title>dependencies</title>
<polygon fill="white" stroke="transparent" points="-4,4 -4,-424 1510,-424 1510,4 -4,4"/>
<text text-anchor="start" x="732.01" y="-42.4" font-family="sans-serif" font-weight="bold" font-size="14.00">Legend</text>
<polygon fill="#ffffb3" stroke="transparent" points="519,-10 519,-30 539,-30 539,-10 519,-10"/>
<text text-anchor="start" x="542.63" y="-15.4" font-family="sans-serif" font-size="14.00"> &#160;Declarations</text>
<polygon fill="#8dd3c7" stroke="transparent" points="632,-10 632,-30 652,-30 652,-10 632,-10"/>
<text text-anchor="start" x="655.73" y="-15.4" font-family="sans-serif" font-size="14.00"> &#160;Module</text>
<polygon fill="#80b1d3" stroke="transparent" points="718,-10 718,-30 738,-30 738,-10 718,-10"/>
<text text-anchor="start" x="741.78" y="-15.4" font-family="sans-serif" font-size="14.00"> &#160;Bootstrap</text>
<polygon fill="#fdb462" stroke="transparent" points="815,-10 815,-30 835,-30 835,-10 815,-10"/>
<text text-anchor="start" x="838.67" y="-15.4" font-family="sans-serif" font-size="14.00"> &#160;Providers</text>
<polygon fill="#fb8072" stroke="transparent" points="911,-10 911,-30 931,-30 931,-10 911,-10"/>
<text text-anchor="start" x="934.73" y="-15.4" font-family="sans-serif" font-size="14.00"> &#160;Exports</text>
<g id="clust1" class="cluster">
<title>cluster_AppModule</title>
<polygon fill="none" stroke="black" stroke-dasharray="1,5" points="370,-146 370,-412 1029,-412 1029,-146 370,-146"/>
</g>
<g id="clust2" class="cluster">
<title>cluster_AppModule_declarations</title>
<polygon fill="none" stroke="black" points="762,-222 762,-274 1021,-274 1021,-222 762,-222"/>
</g>
<g id="clust5" class="cluster">
<title>cluster_AppModule_imports</title>
<polygon fill="none" stroke="black" points="378,-154 378,-274 754,-274 754,-154 378,-154"/>
</g>
<g id="clust7" class="cluster">
<title>cluster_AppModule_bootstrap</title>
<polygon fill="none" stroke="black" points="607,-352 607,-404 731,-404 731,-352 607,-352"/>
</g>
<g id="clust15" class="cluster">
<title>cluster_DeaModule</title>
<polygon fill="none" stroke="black" stroke-dasharray="1,5" points="8,-70 8,-138 442,-138 442,-70 8,-70"/>
</g>
<g id="clust16" class="cluster">
<title>cluster_DeaModule_declarations</title>
<polygon fill="none" stroke="black" points="152,-78 152,-130 434,-130 434,-78 152,-78"/>
</g>
<g id="clust22" class="cluster">
<title>cluster_DeaModule_providers</title>
<polygon fill="none" stroke="black" points="16,-78 16,-130 144,-130 144,-78 16,-78"/>
</g>
<g id="clust23" class="cluster">
<title>cluster_GrammarModule</title>
<polygon fill="none" stroke="black" stroke-dasharray="1,5" points="450,-70 450,-138 1202,-138 1202,-70 450,-70"/>
</g>
<g id="clust24" class="cluster">
<title>cluster_GrammarModule_declarations</title>
<polygon fill="none" stroke="black" points="856,-78 856,-130 1194,-130 1194,-78 856,-78"/>
</g>
<g id="clust30" class="cluster">
<title>cluster_GrammarModule_providers</title>
<polygon fill="none" stroke="black" points="458,-78 458,-130 848,-130 848,-78 458,-78"/>
</g>
<g id="clust31" class="cluster">
<title>cluster_KellerModule</title>
<polygon fill="none" stroke="black" stroke-dasharray="1,5" points="1210,-70 1210,-206 1358,-206 1358,-70 1210,-70"/>
</g>
<g id="clust32" class="cluster">
<title>cluster_KellerModule_declarations</title>
<polygon fill="none" stroke="black" points="1218,-78 1218,-130 1350,-130 1350,-78 1218,-78"/>
</g>
<g id="clust38" class="cluster">
<title>cluster_MainModule</title>
<polygon fill="none" stroke="black" stroke-dasharray="1,5" points="1037,-146 1037,-214 1179,-214 1179,-146 1037,-146"/>
</g>
<g id="clust39" class="cluster">
<title>cluster_MainModule_declarations</title>
<polygon fill="none" stroke="black" points="1045,-154 1045,-206 1171,-206 1171,-154 1045,-154"/>
</g>
<g id="clust45" class="cluster">
<title>cluster_TmModule</title>
<polygon fill="none" stroke="black" stroke-dasharray="1,5" points="1366,-70 1366,-206 1498,-206 1498,-70 1366,-70"/>
</g>
<g id="clust46" class="cluster">
<title>cluster_TmModule_declarations</title>
<polygon fill="none" stroke="black" points="1374,-78 1374,-130 1490,-130 1490,-78 1374,-78"/>
</g>
<!-- AppComponent -->
<g id="node1" class="node">
<title>AppComponent</title>
<polygon fill="#ffffb3" stroke="black" points="1012.94,-266 907.06,-266 907.06,-230 1012.94,-230 1012.94,-266"/>
<text text-anchor="middle" x="960" y="-243.8" font-family="Times,serif" font-size="14.00">AppComponent</text>
</g>
<!-- AppModule -->
<g id="node3" class="node">
<title>AppModule</title>
<polygon fill="#8dd3c7" stroke="black" points="710.66,-331 707.66,-335 686.66,-335 683.66,-331 627.34,-331 627.34,-295 710.66,-295 710.66,-331"/>
<text text-anchor="middle" x="669" y="-308.8" font-family="Times,serif" font-size="14.00">AppModule</text>
</g>
<!-- AppComponent&#45;&gt;AppModule -->
<g id="edge1" class="edge">
<title>AppComponent&#45;&gt;AppModule</title>
<path fill="none" stroke="black" d="M960,-266.28C960,-287.32 960,-319 960,-319 960,-319 720.69,-319 720.69,-319"/>
<polygon fill="black" stroke="black" points="720.69,-315.5 710.69,-319 720.69,-322.5 720.69,-315.5"/>
</g>
<!-- DialogComponent -->
<g id="node2" class="node">
<title>DialogComponent</title>
<polygon fill="#ffffb3" stroke="black" points="889.94,-266 770.06,-266 770.06,-230 889.94,-230 889.94,-266"/>
<text text-anchor="middle" x="830" y="-243.8" font-family="Times,serif" font-size="14.00">DialogComponent</text>
</g>
<!-- DialogComponent&#45;&gt;AppModule -->
<g id="edge2" class="edge">
<title>DialogComponent&#45;&gt;AppModule</title>
<path fill="none" stroke="black" d="M830,-266.02C830,-283.37 830,-307 830,-307 830,-307 720.88,-307 720.88,-307"/>
<polygon fill="black" stroke="black" points="720.88,-303.5 710.88,-307 720.88,-310.5 720.88,-303.5"/>
</g>
<!-- AppComponent  -->
<g id="node8" class="node">
<title>AppComponent </title>
<polygon fill="#80b1d3" stroke="black" points="723.44,-396 614.56,-396 614.56,-360 723.44,-360 723.44,-396"/>
<text text-anchor="middle" x="669" y="-373.8" font-family="Times,serif" font-size="14.00">AppComponent </text>
</g>
<!-- AppModule&#45;&gt;AppComponent  -->
<g id="edge7" class="edge">
<title>AppModule&#45;&gt;AppComponent </title>
<path fill="none" stroke="black" stroke-dasharray="1,5" d="M669,-331.11C669,-331.11 669,-349.99 669,-349.99"/>
<polygon fill="black" stroke="black" points="665.5,-349.99 669,-359.99 672.5,-349.99 665.5,-349.99"/>
</g>
<!-- AppRoutingModule -->
<g id="node4" class="node">
<title>AppRoutingModule</title>
<polygon fill="#8dd3c7" stroke="black" points="746.27,-198 743.27,-202 722.27,-202 719.27,-198 617.73,-198 617.73,-162 746.27,-162 746.27,-198"/>
<text text-anchor="middle" x="682" y="-175.8" font-family="Times,serif" font-size="14.00">AppRoutingModule</text>
</g>
<!-- AppRoutingModule&#45;&gt;AppModule -->
<g id="edge3" class="edge">
<title>AppRoutingModule&#45;&gt;AppModule</title>
<path fill="none" stroke="black" d="M641.81,-198.21C641.81,-198.21 641.81,-284.58 641.81,-284.58"/>
<polygon fill="black" stroke="black" points="638.31,-284.58 641.81,-294.58 645.31,-284.58 638.31,-284.58"/>
</g>
<!-- MainModule -->
<g id="node7" class="node">
<title>MainModule</title>
<polygon fill="#8dd3c7" stroke="black" points="745.6,-266 742.6,-270 721.6,-270 718.6,-266 656.4,-266 656.4,-230 745.6,-230 745.6,-266"/>
<text text-anchor="middle" x="701" y="-243.8" font-family="Times,serif" font-size="14.00">MainModule</text>
</g>
<!-- AppRoutingModule&#45;&gt;MainModule -->
<g id="edge17" class="edge">
<title>AppRoutingModule&#45;&gt;MainModule</title>
<path fill="none" stroke="black" d="M701,-198.22C701,-198.22 701,-219.73 701,-219.73"/>
<polygon fill="black" stroke="black" points="697.5,-219.73 701,-229.73 704.5,-219.73 697.5,-219.73"/>
</g>
<!-- DeaModule -->
<g id="node5" class="node">
<title>DeaModule</title>
<polygon fill="#8dd3c7" stroke="black" points="468.09,-198 465.09,-202 444.09,-202 441.09,-198 385.91,-198 385.91,-162 468.09,-162 468.09,-198"/>
<text text-anchor="middle" x="427" y="-175.8" font-family="Times,serif" font-size="14.00">DeaModule</text>
</g>
<!-- DeaModule&#45;&gt;AppModule -->
<g id="edge4" class="edge">
<title>DeaModule&#45;&gt;AppModule</title>
<path fill="none" stroke="black" d="M427,-198.17C427,-235.85 427,-319 427,-319 427,-319 617.12,-319 617.12,-319"/>
<polygon fill="black" stroke="black" points="617.12,-322.5 627.12,-319 617.12,-315.5 617.12,-322.5"/>
</g>
<!-- GrammarModule -->
<g id="node6" class="node">
<title>GrammarModule</title>
<polygon fill="#8dd3c7" stroke="black" points="599.69,-198 596.69,-202 575.69,-202 572.69,-198 486.31,-198 486.31,-162 599.69,-162 599.69,-198"/>
<text text-anchor="middle" x="543" y="-175.8" font-family="Times,serif" font-size="14.00">GrammarModule</text>
</g>
<!-- GrammarModule&#45;&gt;AppModule -->
<g id="edge5" class="edge">
<title>GrammarModule&#45;&gt;AppModule</title>
<path fill="none" stroke="black" d="M543,-198.2C543,-233.31 543,-307 543,-307 543,-307 617.04,-307 617.04,-307"/>
<polygon fill="black" stroke="black" points="617.04,-310.5 627.04,-307 617.04,-303.5 617.04,-310.5"/>
</g>
<!-- MainModule&#45;&gt;AppModule -->
<g id="edge6" class="edge">
<title>MainModule&#45;&gt;AppModule</title>
<path fill="none" stroke="black" d="M683.64,-266.11C683.64,-266.11 683.64,-284.99 683.64,-284.99"/>
<polygon fill="black" stroke="black" points="680.14,-284.99 683.64,-294.99 687.14,-284.99 680.14,-284.99"/>
</g>
<!-- CytoGraphComponent -->
<g id="node9" class="node">
<title>CytoGraphComponent</title>
<polygon fill="#ffffb3" stroke="black" points="425.54,-122 282.46,-122 282.46,-86 425.54,-86 425.54,-122"/>
<text text-anchor="middle" x="354" y="-99.8" font-family="Times,serif" font-size="14.00">CytoGraphComponent</text>
</g>
<!-- CytoGraphComponent&#45;&gt;DeaModule -->
<g id="edge8" class="edge">
<title>CytoGraphComponent&#45;&gt;DeaModule</title>
<path fill="none" stroke="black" d="M405.86,-122.01C405.86,-122.01 405.86,-151.85 405.86,-151.85"/>
<polygon fill="black" stroke="black" points="402.36,-151.85 405.86,-161.85 409.36,-151.85 402.36,-151.85"/>
</g>
<!-- DeaComponent -->
<g id="node10" class="node">
<title>DeaComponent</title>
<polygon fill="#ffffb3" stroke="black" points="263.87,-122 160.13,-122 160.13,-86 263.87,-86 263.87,-122"/>
<text text-anchor="middle" x="212" y="-99.8" font-family="Times,serif" font-size="14.00">DeaComponent</text>
</g>
<!-- DeaComponent&#45;&gt;DeaModule -->
<g id="edge9" class="edge">
<title>DeaComponent&#45;&gt;DeaModule</title>
<path fill="none" stroke="black" d="M212,-122.03C212,-142.77 212,-174 212,-174 212,-174 375.8,-174 375.8,-174"/>
<polygon fill="black" stroke="black" points="375.8,-177.5 385.8,-174 375.8,-170.5 375.8,-177.5"/>
</g>
<!-- DeaService -->
<g id="node11" class="node">
<title>DeaService</title>
<ellipse fill="#fdb462" stroke="black" cx="80" cy="-104" rx="55.57" ry="18"/>
<text text-anchor="middle" x="80" y="-99.8" font-family="Times,serif" font-size="14.00">DeaService</text>
</g>
<!-- DeaService&#45;&gt;DeaModule -->
<g id="edge10" class="edge">
<title>DeaService&#45;&gt;DeaModule</title>
<path fill="none" stroke="black" d="M80,-122.2C80,-146.36 80,-186 80,-186 80,-186 375.83,-186 375.83,-186"/>
<polygon fill="black" stroke="black" points="375.83,-189.5 385.83,-186 375.83,-182.5 375.83,-189.5"/>
</g>
<!-- GrammarComponent -->
<g id="node12" class="node">
<title>GrammarComponent</title>
<polygon fill="#ffffb3" stroke="black" points="1186.47,-122 1051.53,-122 1051.53,-86 1186.47,-86 1186.47,-122"/>
<text text-anchor="middle" x="1119" y="-99.8" font-family="Times,serif" font-size="14.00">GrammarComponent</text>
</g>
<!-- GrammarComponent&#45;&gt;GrammarModule -->
<g id="edge11" class="edge">
<title>GrammarComponent&#45;&gt;GrammarModule</title>
<path fill="none" stroke="black" d="M1108,-122.15C1108,-135.74 1108,-152 1108,-152 1108,-152 576.96,-152 576.96,-152 576.96,-152 576.96,-152.98 576.96,-152.98"/>
<polygon fill="black" stroke="black" points="573.46,-151.79 576.96,-161.79 580.46,-151.79 573.46,-151.79"/>
</g>
<!-- GrammarGraphComponent -->
<g id="node13" class="node">
<title>GrammarGraphComponent</title>
<polygon fill="#ffffb3" stroke="black" points="1033.95,-122 864.05,-122 864.05,-86 1033.95,-86 1033.95,-122"/>
<text text-anchor="middle" x="949" y="-99.8" font-family="Times,serif" font-size="14.00">GrammarGraphComponent</text>
</g>
<!-- GrammarGraphComponent&#45;&gt;GrammarModule -->
<g id="edge12" class="edge">
<title>GrammarGraphComponent&#45;&gt;GrammarModule</title>
<path fill="none" stroke="black" d="M876.87,-122.11C876.87,-131.9 876.87,-142 876.87,-142 876.87,-142 554.32,-142 554.32,-142 554.32,-142 554.32,-151.89 554.32,-151.89"/>
<polygon fill="black" stroke="black" points="550.82,-151.89 554.32,-161.89 557.82,-151.89 550.82,-151.89"/>
</g>
<!-- GrammarGraphService -->
<g id="node14" class="node">
<title>GrammarGraphService</title>
<ellipse fill="#fdb462" stroke="black" cx="739" cy="-104" rx="101.24" ry="18"/>
<text text-anchor="middle" x="739" y="-99.8" font-family="Times,serif" font-size="14.00">GrammarGraphService</text>
</g>
<!-- GrammarGraphService&#45;&gt;GrammarModule -->
<g id="edge13" class="edge">
<title>GrammarGraphService&#45;&gt;GrammarModule</title>
<path fill="none" stroke="black" d="M692.13,-119.96C692.13,-126.25 692.13,-132 692.13,-132 692.13,-132 531.68,-132 531.68,-132 531.68,-132 531.68,-151.85 531.68,-151.85"/>
<polygon fill="black" stroke="black" points="528.18,-151.85 531.68,-161.85 535.18,-151.85 528.18,-151.85"/>
</g>
<!-- GrammarService -->
<g id="node15" class="node">
<title>GrammarService</title>
<ellipse fill="#fdb462" stroke="black" cx="543" cy="-104" rx="76.98" ry="18"/>
<text text-anchor="middle" x="543" y="-99.8" font-family="Times,serif" font-size="14.00">GrammarService</text>
</g>
<!-- GrammarService&#45;&gt;GrammarModule -->
<g id="edge14" class="edge">
<title>GrammarService&#45;&gt;GrammarModule</title>
<path fill="none" stroke="black" d="M509.04,-120.49C509.04,-120.49 509.04,-151.95 509.04,-151.95"/>
<polygon fill="black" stroke="black" points="505.54,-151.95 509.04,-161.95 512.54,-151.95 505.54,-151.95"/>
</g>
<!-- KellerComponent -->
<g id="node16" class="node">
<title>KellerComponent</title>
<polygon fill="#ffffb3" stroke="black" points="1342.31,-122 1225.69,-122 1225.69,-86 1342.31,-86 1342.31,-122"/>
<text text-anchor="middle" x="1284" y="-99.8" font-family="Times,serif" font-size="14.00">KellerComponent</text>
</g>
<!-- KellerModule -->
<g id="node17" class="node">
<title>KellerModule</title>
<polygon fill="#8dd3c7" stroke="black" points="1331.03,-198 1328.03,-202 1307.03,-202 1304.03,-198 1236.97,-198 1236.97,-162 1331.03,-162 1331.03,-198"/>
<text text-anchor="middle" x="1284" y="-175.8" font-family="Times,serif" font-size="14.00">KellerModule</text>
</g>
<!-- KellerComponent&#45;&gt;KellerModule -->
<g id="edge15" class="edge">
<title>KellerComponent&#45;&gt;KellerModule</title>
<path fill="none" stroke="black" d="M1284,-122.01C1284,-122.01 1284,-151.85 1284,-151.85"/>
<polygon fill="black" stroke="black" points="1280.5,-151.85 1284,-161.85 1287.5,-151.85 1280.5,-151.85"/>
</g>
<!-- MainComponent -->
<g id="node18" class="node">
<title>MainComponent</title>
<polygon fill="#ffffb3" stroke="black" points="1163.38,-198 1052.62,-198 1052.62,-162 1163.38,-162 1163.38,-198"/>
<text text-anchor="middle" x="1108" y="-175.8" font-family="Times,serif" font-size="14.00">MainComponent</text>
</g>
<!-- MainComponent&#45;&gt;MainModule -->
<g id="edge16" class="edge">
<title>MainComponent&#45;&gt;MainModule</title>
<path fill="none" stroke="black" d="M1052.59,-180C954,-180 758.33,-180 758.33,-180 758.33,-180 758.33,-248 758.33,-248 758.33,-248 755.61,-248 755.61,-248"/>
<polygon fill="black" stroke="black" points="755.61,-244.5 745.61,-248 755.61,-251.5 755.61,-244.5"/>
</g>
<!-- TmComponent -->
<g id="node19" class="node">
<title>TmComponent</title>
<polygon fill="#ffffb3" stroke="black" points="1482.28,-122 1381.72,-122 1381.72,-86 1482.28,-86 1482.28,-122"/>
<text text-anchor="middle" x="1432" y="-99.8" font-family="Times,serif" font-size="14.00">TmComponent</text>
</g>
<!-- TmModule -->
<g id="node20" class="node">
<title>TmModule</title>
<polygon fill="#8dd3c7" stroke="black" points="1471.49,-198 1468.49,-202 1447.49,-202 1444.49,-198 1392.51,-198 1392.51,-162 1471.49,-162 1471.49,-198"/>
<text text-anchor="middle" x="1432" y="-175.8" font-family="Times,serif" font-size="14.00">TmModule</text>
</g>
<!-- TmComponent&#45;&gt;TmModule -->
<g id="edge18" class="edge">
<title>TmComponent&#45;&gt;TmModule</title>
<path fill="none" stroke="black" d="M1432,-122.01C1432,-122.01 1432,-151.85 1432,-151.85"/>
<polygon fill="black" stroke="black" points="1428.5,-151.85 1432,-161.85 1435.5,-151.85 1428.5,-151.85"/>
</g>
</g>
</svg>
