<?xml version="1.0" encoding="UTF-8" standalone="no"?>
<!DOCTYPE svg PUBLIC "-//W3C//DTD SVG 1.1//EN"
 "http://www.w3.org/Graphics/SVG/1.1/DTD/svg11.dtd">
<!-- Generated by graphviz version 2.47.0 (20210316.0004)
 -->
<!-- Title: dependencies Pages: 1 -->
<svg width="504pt" height="211pt"
 viewBox="0.00 0.00 504.00 211.00" xmlns="http://www.w3.org/2000/svg" xmlns:xlink="http://www.w3.org/1999/xlink">
<g id="graph0" class="graph" transform="scale(1 1) rotate(0) translate(4 207)">
<title>dependencies</title>
<polygon fill="white" stroke="transparent" points="-4,4 -4,-207 500,-207 500,4 -4,4"/>
<text text-anchor="start" x="227.01" y="-42.4" font-family="sans-serif" font-weight="bold" font-size="14.00">Legend</text>
<polygon fill="#ffffb3" stroke="transparent" points="14,-10 14,-30 34,-30 34,-10 14,-10"/>
<text text-anchor="start" x="37.63" y="-15.4" font-family="sans-serif" font-size="14.00"> &#160;Declarations</text>
<polygon fill="#8dd3c7" stroke="transparent" points="127,-10 127,-30 147,-30 147,-10 127,-10"/>
<text text-anchor="start" x="150.73" y="-15.4" font-family="sans-serif" font-size="14.00"> &#160;Module</text>
<polygon fill="#80b1d3" stroke="transparent" points="213,-10 213,-30 233,-30 233,-10 213,-10"/>
<text text-anchor="start" x="236.78" y="-15.4" font-family="sans-serif" font-size="14.00"> &#160;Bootstrap</text>
<polygon fill="#fdb462" stroke="transparent" points="310,-10 310,-30 330,-30 330,-10 310,-10"/>
<text text-anchor="start" x="333.67" y="-15.4" font-family="sans-serif" font-size="14.00"> &#160;Providers</text>
<polygon fill="#fb8072" stroke="transparent" points="406,-10 406,-30 426,-30 426,-10 406,-10"/>
<text text-anchor="start" x="429.73" y="-15.4" font-family="sans-serif" font-size="14.00"> &#160;Exports</text>
<g id="clust1" class="cluster">
<title>cluster_KellerModule</title>
<polygon fill="none" stroke="black" stroke-dasharray="1,5" points="13,-70 13,-195 483,-195 483,-70 13,-70"/>
</g>
<g id="clust8" class="cluster">
<title>cluster_KellerModule_providers</title>
<polygon fill="none" stroke="black" points="331,-78 331,-130 475,-130 475,-78 331,-78"/>
</g>
<g id="clust2" class="cluster">
<title>cluster_KellerModule_declarations</title>
<polygon fill="none" stroke="black" points="21,-78 21,-130 323,-130 323,-78 21,-78"/>
</g>
<!-- KellerComponent -->
<g id="node1" class="node">
<title>KellerComponent</title>
<polygon fill="#ffffb3" stroke="black" points="315.31,-122 198.69,-122 198.69,-86 315.31,-86 315.31,-122"/>
<text text-anchor="middle" x="257" y="-99.8" font-family="Times,serif" font-size="14.00">KellerComponent</text>
</g>
<!-- KellerModule -->
<g id="node3" class="node">
<title>KellerModule</title>
<polygon fill="#8dd3c7" stroke="black" points="304.03,-187 301.03,-191 280.03,-191 277.03,-187 209.97,-187 209.97,-151 304.03,-151 304.03,-187"/>
<text text-anchor="middle" x="257" y="-164.8" font-family="Times,serif" font-size="14.00">KellerModule</text>
</g>
<!-- KellerComponent&#45;&gt;KellerModule -->
<g id="edge1" class="edge">
<title>KellerComponent&#45;&gt;KellerModule</title>
<path fill="none" stroke="black" d="M257,-122.11C257,-122.11 257,-140.99 257,-140.99"/>
<polygon fill="black" stroke="black" points="253.5,-140.99 257,-150.99 260.5,-140.99 253.5,-140.99"/>
</g>
<!-- TmGraphComponent -->
<g id="node2" class="node">
<title>TmGraphComponent</title>
<polygon fill="#ffffb3" stroke="black" points="180.79,-122 29.21,-122 29.21,-86 180.79,-86 180.79,-122"/>
<text text-anchor="middle" x="105" y="-99.8" font-family="Times,serif" font-size="14.00">TmGraphComponent</text>
</g>
<!-- TmGraphComponent&#45;&gt;KellerModule -->
<g id="edge2" class="edge">
<title>TmGraphComponent&#45;&gt;KellerModule</title>
<path fill="none" stroke="black" d="M105,-122.11C105,-141.34 105,-169 105,-169 105,-169 199.74,-169 199.74,-169"/>
<polygon fill="black" stroke="black" points="199.74,-172.5 209.74,-169 199.74,-165.5 199.74,-172.5"/>
</g>
<!-- KellerService -->
<g id="node4" class="node">
<title>KellerService</title>
<ellipse fill="#fdb462" stroke="black" cx="403" cy="-104" rx="64.24" ry="18"/>
<text text-anchor="middle" x="403" y="-99.8" font-family="Times,serif" font-size="14.00">KellerService</text>
</g>
<!-- KellerService&#45;&gt;KellerModule -->
<g id="edge3" class="edge">
<title>KellerService&#45;&gt;KellerModule</title>
<path fill="none" stroke="black" d="M403,-122.11C403,-141.34 403,-169 403,-169 403,-169 314.4,-169 314.4,-169"/>
<polygon fill="black" stroke="black" points="314.4,-165.5 304.4,-169 314.4,-172.5 314.4,-165.5"/>
</g>
</g>
</svg>
