<?xml version="1.0" encoding="UTF-8" standalone="no"?>
<!DOCTYPE svg PUBLIC "-//W3C//DTD SVG 1.1//EN"
 "http://www.w3.org/Graphics/SVG/1.1/DTD/svg11.dtd">
<!-- Generated by graphviz version 2.47.0 (20210316.0004)
 -->
<!-- Title: dependencies Pages: 1 -->
<svg width="776pt" height="211pt"
 viewBox="0.00 0.00 776.00 211.00" xmlns="http://www.w3.org/2000/svg" xmlns:xlink="http://www.w3.org/1999/xlink">
<g id="graph0" class="graph" transform="scale(1 1) rotate(0) translate(4 207)">
<title>dependencies</title>
<polygon fill="white" stroke="transparent" points="-4,4 -4,-207 772,-207 772,4 -4,4"/>
<text text-anchor="start" x="363.01" y="-42.4" font-family="sans-serif" font-weight="bold" font-size="14.00">Legend</text>
<polygon fill="#ffffb3" stroke="transparent" points="150,-10 150,-30 170,-30 170,-10 150,-10"/>
<text text-anchor="start" x="173.63" y="-15.4" font-family="sans-serif" font-size="14.00"> &#160;Declarations</text>
<polygon fill="#8dd3c7" stroke="transparent" points="263,-10 263,-30 283,-30 283,-10 263,-10"/>
<text text-anchor="start" x="286.73" y="-15.4" font-family="sans-serif" font-size="14.00"> &#160;Module</text>
<polygon fill="#80b1d3" stroke="transparent" points="349,-10 349,-30 369,-30 369,-10 349,-10"/>
<text text-anchor="start" x="372.78" y="-15.4" font-family="sans-serif" font-size="14.00"> &#160;Bootstrap</text>
<polygon fill="#fdb462" stroke="transparent" points="446,-10 446,-30 466,-30 466,-10 446,-10"/>
<text text-anchor="start" x="469.67" y="-15.4" font-family="sans-serif" font-size="14.00"> &#160;Providers</text>
<polygon fill="#fb8072" stroke="transparent" points="542,-10 542,-30 562,-30 562,-10 542,-10"/>
<text text-anchor="start" x="565.73" y="-15.4" font-family="sans-serif" font-size="14.00"> &#160;Exports</text>
<g id="clust1" class="cluster">
<title>cluster_GrammarModule</title>
<polygon fill="none" stroke="black" stroke-dasharray="1,5" points="8,-70 8,-195 760,-195 760,-70 8,-70"/>
</g>
<g id="clust2" class="cluster">
<title>cluster_GrammarModule_declarations</title>
<polygon fill="none" stroke="black" points="414,-78 414,-130 752,-130 752,-78 414,-78"/>
</g>
<g id="clust8" class="cluster">
<title>cluster_GrammarModule_providers</title>
<polygon fill="none" stroke="black" points="16,-78 16,-130 406,-130 406,-78 16,-78"/>
</g>
<!-- GrammarComponent -->
<g id="node1" class="node">
<title>GrammarComponent</title>
<polygon fill="#ffffb3" stroke="black" points="744.47,-122 609.53,-122 609.53,-86 744.47,-86 744.47,-122"/>
<text text-anchor="middle" x="677" y="-99.8" font-family="Times,serif" font-size="14.00">GrammarComponent</text>
</g>
<!-- GrammarModule -->
<g id="node3" class="node">
<title>GrammarModule</title>
<polygon fill="#8dd3c7" stroke="black" points="458.69,-187 455.69,-191 434.69,-191 431.69,-187 345.31,-187 345.31,-151 458.69,-151 458.69,-187"/>
<text text-anchor="middle" x="402" y="-164.8" font-family="Times,serif" font-size="14.00">GrammarModule</text>
</g>
<!-- GrammarComponent&#45;&gt;GrammarModule -->
<g id="edge1" class="edge">
<title>GrammarComponent&#45;&gt;GrammarModule</title>
<path fill="none" stroke="black" d="M677,-122.11C677,-141.34 677,-169 677,-169 677,-169 468.65,-169 468.65,-169"/>
<polygon fill="black" stroke="black" points="468.65,-165.5 458.65,-169 468.65,-172.5 468.65,-165.5"/>
</g>
<!-- GrammarGraphComponent -->
<g id="node2" class="node">
<title>GrammarGraphComponent</title>
<polygon fill="#ffffb3" stroke="black" points="591.95,-122 422.05,-122 422.05,-86 591.95,-86 591.95,-122"/>
<text text-anchor="middle" x="507" y="-99.8" font-family="Times,serif" font-size="14.00">GrammarGraphComponent</text>
</g>
<!-- GrammarGraphComponent&#45;&gt;GrammarModule -->
<g id="edge2" class="edge">
<title>GrammarGraphComponent&#45;&gt;GrammarModule</title>
<path fill="none" stroke="black" d="M440.31,-122.11C440.31,-122.11 440.31,-140.99 440.31,-140.99"/>
<polygon fill="black" stroke="black" points="436.81,-140.99 440.31,-150.99 443.81,-140.99 436.81,-140.99"/>
</g>
<!-- GrammarGraphService -->
<g id="node4" class="node">
<title>GrammarGraphService</title>
<ellipse fill="#fdb462" stroke="black" cx="297" cy="-104" rx="101.24" ry="18"/>
<text text-anchor="middle" x="297" y="-99.8" font-family="Times,serif" font-size="14.00">GrammarGraphService</text>
</g>
<!-- GrammarGraphService&#45;&gt;GrammarModule -->
<g id="edge3" class="edge">
<title>GrammarGraphService&#45;&gt;GrammarModule</title>
<path fill="none" stroke="black" d="M371.76,-116.23C371.76,-116.23 371.76,-140.68 371.76,-140.68"/>
<polygon fill="black" stroke="black" points="368.26,-140.68 371.76,-150.68 375.26,-140.68 368.26,-140.68"/>
</g>
<!-- GrammarService -->
<g id="node5" class="node">
<title>GrammarService</title>
<ellipse fill="#fdb462" stroke="black" cx="101" cy="-104" rx="76.98" ry="18"/>
<text text-anchor="middle" x="101" y="-99.8" font-family="Times,serif" font-size="14.00">GrammarService</text>
</g>
<!-- GrammarService&#45;&gt;GrammarModule -->
<g id="edge4" class="edge">
<title>GrammarService&#45;&gt;GrammarModule</title>
<path fill="none" stroke="black" d="M101,-122.11C101,-141.34 101,-169 101,-169 101,-169 335.38,-169 335.38,-169"/>
<polygon fill="black" stroke="black" points="335.38,-172.5 345.38,-169 335.38,-165.5 335.38,-172.5"/>
</g>
</g>
</svg>
