<?xml version="1.0" encoding="UTF-8" standalone="no"?>
<!DOCTYPE svg PUBLIC "-//W3C//DTD SVG 1.1//EN"
 "http://www.w3.org/Graphics/SVG/1.1/DTD/svg11.dtd">
<!-- Generated by graphviz version 2.47.0 (20210316.0004)
 -->
<!-- Title: dependencies Pages: 1 -->
<svg width="504pt" height="211pt"
 viewBox="0.00 0.00 504.00 211.00" xmlns="http://www.w3.org/2000/svg" xmlns:xlink="http://www.w3.org/1999/xlink">
<g id="graph0" class="graph" transform="scale(1 1) rotate(0) translate(4 207)">
<title>dependencies</title>
<polygon fill="white" stroke="transparent" points="-4,4 -4,-207 500,-207 500,4 -4,4"/>
<text text-anchor="start" x="227.01" y="-42.4" font-family="sans-serif" font-weight="bold" font-size="14.00">Legend</text>
<polygon fill="#ffffb3" stroke="transparent" points="14,-10 14,-30 34,-30 34,-10 14,-10"/>
<text text-anchor="start" x="37.63" y="-15.4" font-family="sans-serif" font-size="14.00"> &#160;Declarations</text>
<polygon fill="#8dd3c7" stroke="transparent" points="127,-10 127,-30 147,-30 147,-10 127,-10"/>
<text text-anchor="start" x="150.73" y="-15.4" font-family="sans-serif" font-size="14.00"> &#160;Module</text>
<polygon fill="#80b1d3" stroke="transparent" points="213,-10 213,-30 233,-30 233,-10 213,-10"/>
<text text-anchor="start" x="236.78" y="-15.4" font-family="sans-serif" font-size="14.00"> &#160;Bootstrap</text>
<polygon fill="#fdb462" stroke="transparent" points="310,-10 310,-30 330,-30 330,-10 310,-10"/>
<text text-anchor="start" x="333.67" y="-15.4" font-family="sans-serif" font-size="14.00"> &#160;Providers</text>
<polygon fill="#fb8072" stroke="transparent" points="406,-10 406,-30 426,-30 426,-10 406,-10"/>
<text text-anchor="start" x="429.73" y="-15.4" font-family="sans-serif" font-size="14.00"> &#160;Exports</text>
<g id="clust1" class="cluster">
<title>cluster_MainModule</title>
<polygon fill="none" stroke="black" stroke-dasharray="1,5" points="101,-70 101,-195 395,-195 395,-70 101,-70"/>
</g>
<g id="clust4" class="cluster">
<title>cluster_MainModule_imports</title>
<polygon fill="none" stroke="black" points="243,-78 243,-130 387,-130 387,-78 243,-78"/>
</g>
<g id="clust2" class="cluster">
<title>cluster_MainModule_declarations</title>
<polygon fill="none" stroke="black" points="109,-78 109,-130 235,-130 235,-78 109,-78"/>
</g>
<!-- MainComponent -->
<g id="node1" class="node">
<title>MainComponent</title>
<polygon fill="#ffffb3" stroke="black" points="227.38,-122 116.62,-122 116.62,-86 227.38,-86 227.38,-122"/>
<text text-anchor="middle" x="172" y="-99.8" font-family="Times,serif" font-size="14.00">MainComponent</text>
</g>
<!-- MainModule -->
<g id="node2" class="node">
<title>MainModule</title>
<polygon fill="#8dd3c7" stroke="black" points="287.6,-187 284.6,-191 263.6,-191 260.6,-187 198.4,-187 198.4,-151 287.6,-151 287.6,-187"/>
<text text-anchor="middle" x="243" y="-164.8" font-family="Times,serif" font-size="14.00">MainModule</text>
</g>
<!-- MainComponent&#45;&gt;MainModule -->
<g id="edge1" class="edge">
<title>MainComponent&#45;&gt;MainModule</title>
<path fill="none" stroke="black" d="M212.95,-122.11C212.95,-122.11 212.95,-140.99 212.95,-140.99"/>
<polygon fill="black" stroke="black" points="209.45,-140.99 212.95,-150.99 216.45,-140.99 209.45,-140.99"/>
</g>
<!-- AppRoutingModule -->
<g id="node3" class="node">
<title>AppRoutingModule</title>
<polygon fill="#8dd3c7" stroke="black" points="379.27,-122 376.27,-126 355.27,-126 352.27,-122 250.73,-122 250.73,-86 379.27,-86 379.27,-122"/>
<text text-anchor="middle" x="315" y="-99.8" font-family="Times,serif" font-size="14.00">AppRoutingModule</text>
</g>
<!-- AppRoutingModule&#45;&gt;MainModule -->
<g id="edge2" class="edge">
<title>AppRoutingModule&#45;&gt;MainModule</title>
<path fill="none" stroke="black" d="M269.08,-122.11C269.08,-122.11 269.08,-140.99 269.08,-140.99"/>
<polygon fill="black" stroke="black" points="265.58,-140.99 269.08,-150.99 272.58,-140.99 265.58,-140.99"/>
</g>
</g>
</svg>
